<svg aria-hidden="true" style="position: absolute; width: 0; height: 0; overflow: hidden;" version="1.1" xmlns="http://www.w3.org/2000/svg" xmlns:xlink="http://www.w3.org/1999/xlink">
<defs>
<symbol id="icon-main-logo" viewBox="0 0 224 32">
<path d="M13.939 24.607h-0.193c-0.205 0.041-0.445 0.068-0.689 0.075l-0.006 0h-0.309c-1.042 0-5.174-0.075-6.603-0.112v-12.059h6.023v-0.451h-6.023v-2.451c0-2.148-0.039-3.731-0.039-4.974v-3.843h6.062c0.078 0 0.194 0 0.309 0.038 0.541 0 1.042 0.038 1.544 0.151h0.039c1.584 0.264 3.784 0.904 5.715 2.487v-3.089h-16.487v24.72h17.182v-4.258c-1.776 2.713-4.864 3.504-6.525 3.769zM45.501 0.377l-2.588 6.48-0.116 0.301-0.154 0.414-1.969 5.012-3.514 8.894c-0.039 0.113-0.077 0.189-0.154 0.189s-0.154-0.076-0.193-0.189l-2.355-5.841-0.309-0.791-2.703-6.745c-0.734-1.808-1.273-3.166-1.661-4.221l-0.039-0.112-1.351-3.392h-3.088l1.852 4.597 0.039 0.075c0.348 0.792 0.734 1.696 1.159 2.827l4.364 10.702 0.231 0.64 2.394 5.841c0.039 0.076 0.077 0.112 0.309 0.112h0.348c0.193 0 0.231-0.037 0.271-0.112l3.591-9.157 3.127-7.989c0.116-0.377 0.309-0.753 0.464-1.13l-3.591 9.118 3.63-9.157 2.51-6.368h-0.502zM63.063 24.607h-0.193c-0.205 0.041-0.445 0.068-0.689 0.075l-0.006 0h-0.309c-1.043 0-5.174-0.075-6.603-0.112v-12.059h6.023v-0.451h-6.023v-2.451c0-2.148-0.039-3.731-0.039-4.974v-3.843h6.062c0.077 0 0.193 0 0.309 0.038 0.541 0 1.042 0.038 1.545 0.151h0.038c1.584 0.264 3.784 0.904 5.715 2.487v-3.089h-16.487v24.72h17.182v-4.258c-1.776 2.713-4.866 3.504-6.526 3.769zM90.339 18.691c-1.931-3.807-3.128-5.238-5.213-5.691 4.364-0.602 7.259-3.052 7.259-6.444 0-3.994-3.707-6.18-9.653-6.18h-6.216v24.72h2.741v-11.946h2.124c2.858 0.189 3.977 1.131 6.448 6.708 1.159 2.675 2.162 4.333 2.896 5.2h3.514c-1.004-0.716-2.008-2.449-3.9-6.369zM89.258 6.519c0 3.844-2.549 6.293-7.105 6.293h-2.896v-12.134h2.935c4.672 0 7.065 1.959 7.065 5.84zM118.048 23.815l-0.039 0.038c-0.734 0.414-1.545 0.716-2.471 0.942-0.039 0-0.077 0-0.116 0.038-0.116 0-0.271 0.038-0.386 0.076 0.013 0.006-0.318 0.046-0.65 0.084l-0.315 0.029c-0.386 0.038-0.772 0.038-1.197 0.038-6.641 0-10.464-5.012-10.464-12.322 0-7.348 4.209-12.36 10.773-12.36 0.27 0 0.578 0 0.849 0.038h0.077c2.201 0.189 4.016 1.131 5.367 2.148 1.815 1.395 2.818 2.939 2.934 3.128l-0.231-4.107c-1.969-0.866-6.023-1.583-9.074-1.583-7.529 0-13.977 5.276-13.977 12.737 0 7.311 5.985 12.699 13.823 12.699 3.938 0 7.336-0.716 9.305-1.583l0.232-4.145s-1.545 2.525-4.441 4.108zM147.009 16.392c0 4.409-3.050 7.913-6.95 7.913-4.788 0-7.838-3.391-7.838-9.157l0.039-2.788v-12.021h-2.741v15.751c0 5.841 3.398 9.346 8.726 9.346 5.869 0 9.267-4.296 9.267-9.044v-16.053h-0.502v16.053zM169.531 18.691c-1.931-3.807-3.128-5.238-5.213-5.691 4.363-0.602 7.259-3.052 7.259-6.444 0-3.994-3.707-6.18-9.653-6.18h-6.216v24.72h2.741v-11.946h2.124c2.858 0.189 3.977 1.131 6.448 6.708 1.159 2.675 2.162 4.333 2.896 5.2h3.514c-1.004-0.716-2.008-2.449-3.9-6.369zM168.45 6.519c0 3.844-2.548 6.293-7.105 6.293h-2.896v-12.134h2.934c4.673 0 7.066 1.959 7.066 5.84zM190.7 24.607h-0.193c-0.205 0.041-0.445 0.068-0.689 0.075l-0.006 0h-0.309c-1.043 0-5.174-0.075-6.603-0.112v-12.059h6.023v-0.451h-6.023v-2.451c0-2.148-0.039-3.731-0.039-4.974v-3.843h6.062c0.077 0 0.193 0 0.309 0.038 0.541 0 1.043 0.038 1.545 0.151h0.039c1.583 0.264 3.783 0.904 5.714 2.487v-3.089h-16.487v24.72h17.182v-4.258c-1.776 2.713-4.865 3.504-6.526 3.769zM213.073 11.569c-3.784-1.546-7.53-3.052-7.53-6.444 0-2.713 1.776-4.748 6.256-4.748h0.386c0.966 0.076 3.591 0.377 5.676 2.224 0.849 0.753 1.621 1.808 2.124 3.241v-4.824c-0.039-0.038-0.116-0.038-0.231-0.076-2.086-0.452-4.325-0.942-7.954-0.942-4.633 0-8.533 2.562-8.533 6.783 0 3.806 3.977 5.464 7.877 7.047 3.706 1.507 7.375 2.939 7.375 6.444 0 2.827-1.738 4.786-5.792 4.786-1.043 0-1.969-0.076-2.78-0.302-0.386-0.112-0.772-0.226-1.197-0.414l-0.231-0.113-0.232-0.112c-0.116-0.076-0.231-0.113-0.347-0.189-0.309-0.189-0.656-0.414-0.966-0.679-1.196-0.942-2.355-2.374-3.127-4.56 0 2.11 0.039 4.372 0.039 5.314 0 0.226 0 0.301 0.347 0.377 2.587 0.678 4.556 1.054 8.495 1.054 4.402 0 7.993-2.751 7.993-6.858 0-3.844-3.861-5.427-7.645-7.010z"></path>
</symbol>
<symbol id="icon-second-img" viewBox="0 0 28 32">
<path fill="#d8b192" style="fill: var(--color1, #d8b192)" d="M16.54 32c-0.091 0-0.179-0.037-0.243-0.101-0.062-0.063-0.101-0.149-0.101-0.245v0-13.071c0-0.002 0-0.004 0-0.006 0-0.678-0.153-1.319-0.426-1.893l0.011 0.027c-0.285-0.6-0.68-1.105-1.163-1.508l-0.007-0.006c-0.068-0.057-0.114-0.14-0.123-0.233l-0-0.001c-0.001-0.010-0.002-0.021-0.002-0.033 0-0.132 0.073-0.246 0.181-0.305l0.002-0.001c0.047-0.025 0.102-0.040 0.161-0.040 0.084 0 0.16 0.030 0.219 0.080l-0.001-0c0.568 0.473 1.025 1.058 1.342 1.723l0.013 0.031c0.303 0.633 0.48 1.376 0.48 2.16 0 0.003 0 0.006 0 0.008v-0 13.071c-0 0.095-0.039 0.181-0.101 0.244v0c-0.062 0.062-0.148 0.101-0.242 0.101v0zM6.233 32c-0.091 0-0.179-0.037-0.243-0.101-0.062-0.063-0.101-0.149-0.101-0.245v0-13.071c-0.001-0.75 0.163-1.49 0.48-2.168 0.33-0.695 0.787-1.28 1.346-1.747l0.008-0.007c0.059-0.049 0.135-0.079 0.219-0.079 0.107 0 0.202 0.049 0.265 0.125l0 0.001c0.049 0.059 0.079 0.136 0.079 0.22 0 0.012-0.001 0.023-0.002 0.035l0-0.001c-0.009 0.094-0.055 0.177-0.123 0.234l-0.001 0c-0.49 0.408-0.885 0.913-1.159 1.487l-0.011 0.026c-0.262 0.547-0.415 1.189-0.415 1.867 0 0.002 0 0.004 0 0.006v-0 13.070c0 0 0 0.001 0 0.001 0 0.095-0.038 0.182-0.1 0.245l0-0c-0.062 0.063-0.148 0.102-0.243 0.102-0 0-0 0-0 0v0z"></path>
<path fill="#d8b192" style="fill: var(--color1, #d8b192)" d="M13.734 22.645h-4.696c-0.382-0.001-0.727-0.157-0.976-0.408l-0-0c-0.25-0.252-0.405-0.6-0.405-0.984v-7.813c0.001-1 0.404-1.905 1.056-2.563l-0 0c0.65-0.655 1.549-1.061 2.544-1.063h0.259c0.995 0.002 1.895 0.408 2.544 1.063l0 0c0.652 0.658 1.055 1.563 1.055 2.562v7.813c-0 0.384-0.155 0.731-0.405 0.984l0-0c-0.249 0.251-0.595 0.407-0.976 0.408h-0zM11.257 10.508c-0.805 0.001-1.533 0.33-2.058 0.86l-0 0c-0.528 0.532-0.854 1.264-0.854 2.073v7.813c0 0.193 0.078 0.367 0.204 0.494l-0-0c0.125 0.126 0.299 0.205 0.491 0.205h4.696c0.192-0 0.365-0.079 0.491-0.205l0-0c0.126-0.127 0.203-0.302 0.204-0.494v-7.813c-0-0.809-0.327-1.541-0.854-2.073l0 0c-0.525-0.53-1.253-0.859-2.058-0.86h-0.259zM13.158 24.465h-3.544c-0.091 0-0.179-0.036-0.243-0.101-0.062-0.063-0.101-0.149-0.101-0.245s0.039-0.182 0.101-0.245l-0 0c0.062-0.063 0.148-0.101 0.243-0.102h3.544c0.091 0 0.179 0.037 0.243 0.102 0.062 0.063 0.101 0.149 0.101 0.245s-0.039 0.182-0.101 0.245l0-0c-0.062 0.063-0.148 0.101-0.243 0.101v0zM26.836 10.661c-0.001 0-0.002 0-0.004 0-0.030 0-0.058-0.004-0.085-0.012l0.002 0.001-5.933-1.625c-0.094-0.026-0.169-0.091-0.209-0.176l-0.001-0.002c-0.020-0.041-0.031-0.090-0.031-0.141 0-0.050 0.011-0.097 0.030-0.139l-0.001 0.002 3.759-8.376c0.032-0.071 0.088-0.129 0.158-0.162 0.041-0.020 0.088-0.031 0.139-0.031 0.030 0 0.059 0.004 0.087 0.012l-0.002-0.001 3.088 0.846c0.075 0.020 0.139 0.067 0.183 0.132s0.064 0.143 0.056 0.22l-0.914 9.154c-0.008 0.081-0.046 0.157-0.105 0.212s-0.138 0.085-0.218 0.085l0.002 0.001zM21.359 8.491l5.192 1.422 0.848-8.49-2.554-0.699-3.486 7.767z"></path>
<path fill="#d8b192" style="fill: var(--color1, #d8b192)" d="M22.284 15.797c-0.121-0-0.227-0.066-0.284-0.164l-0.001-0.002c-0.027-0.047-0.043-0.104-0.043-0.165 0-0.030 0.004-0.060 0.012-0.088l-0.001 0.002 1.553-5.828c0.024-0.085 0.079-0.154 0.151-0.196l0.002-0.001c0.046-0.027 0.101-0.043 0.16-0.043 0.030 0 0.059 0.004 0.087 0.012l-0.002-0.001c0.083 0.023 0.153 0.077 0.196 0.152 0.028 0.048 0.044 0.105 0.044 0.166 0 0.029-0.004 0.057-0.011 0.084l0-0.002-1.553 5.828c-0.018 0.070-0.059 0.132-0.115 0.176-0.054 0.042-0.122 0.068-0.197 0.069h-0z"></path>
<path fill="#d8b192" style="fill: var(--color1, #d8b192)" d="M22.205 19.828c-0.001 0-0.002 0-0.004 0-0.030 0-0.058-0.004-0.085-0.012l0.002 0.001-1.853-0.508c-0.133-0.038-0.231-0.155-0.24-0.296l-0-0.001c-0-0.007-0.001-0.015-0.001-0.023 0-0.040 0.007-0.078 0.020-0.114l-0.001 0.002 0.521-1.472c0.22-0.611 0.541-1.136 0.946-1.583l-0.003 0.004 0.538-0.595c0.039-0.043 0.090-0.076 0.147-0.093l0.002-0.001c0.027-0.008 0.059-0.013 0.091-0.013 0.093 0 0.177 0.040 0.235 0.103l0 0c0.041 0.044 0.070 0.098 0.082 0.157l0.169 0.792c0.129 0.603 0.139 1.227 0.029 1.834l-0.279 1.546c-0.014 0.076-0.053 0.145-0.112 0.194s-0.132 0.077-0.208 0.077l0.002 0.001zM20.776 18.765l1.172 0.321 0.217-1.193c0.041-0.218 0.065-0.469 0.065-0.725 0-0.301-0.033-0.595-0.095-0.877l0.005 0.027-0.037-0.169-0.112 0.124c-0.346 0.38-0.621 0.832-0.801 1.329l-0.009 0.028-0.406 1.136zM1.373 8.979c-0.173 0-0.312-0.14-0.313-0.312v0-0.305c0-0.173 0.14-0.312 0.312-0.312s0.312 0.14 0.312 0.312v0.305c-0 0.172-0.14 0.312-0.312 0.312v0zM1.373 10.798c-0.173 0-0.312-0.14-0.313-0.312v0-0.305c0.004-0.169 0.143-0.305 0.312-0.305s0.308 0.136 0.312 0.304v0.305c0 0.172-0.14 0.312-0.312 0.312v0zM0.617 9.736h-0.305c-0.172 0-0.312-0.14-0.312-0.312s0.14-0.312 0.312-0.312v0h0.305c0.168 0.006 0.301 0.144 0.301 0.312s-0.134 0.306-0.301 0.312l-0.001 0zM2.436 9.736h-0.305c-0.172 0-0.312-0.14-0.312-0.312s0.14-0.312 0.312-0.312v0h0.305c0.168 0.006 0.301 0.144 0.301 0.312s-0.134 0.306-0.301 0.312l-0.001 0zM24.735 26.255c-0.172-0-0.312-0.14-0.313-0.312v-0.305c0-0.172 0.14-0.312 0.313-0.312h0c0.172 0 0.312 0.14 0.312 0.312v0.305c-0 0.172-0.14 0.312-0.312 0.312h-0zM24.735 28.074c-0.172-0-0.312-0.14-0.313-0.312v-0.305c0-0.172 0.14-0.312 0.313-0.312h0c0.172 0 0.312 0.14 0.312 0.312v0.305c-0 0.172-0.14 0.312-0.312 0.312h-0zM23.979 27.012h-0.305c-0 0-0 0-0 0-0.172 0-0.312-0.14-0.312-0.312 0-0.086 0.035-0.165 0.092-0.221v0c0.056-0.057 0.135-0.091 0.221-0.091 0 0 0 0 0 0h0.305c0 0 0 0 0 0 0.172 0 0.312 0.14 0.312 0.312 0 0.086-0.035 0.165-0.092 0.221v0c-0.056 0.057-0.135 0.091-0.221 0.091-0 0-0 0-0 0v0zM25.798 27.012h-0.305c-0 0-0 0-0 0-0.172 0-0.312-0.14-0.312-0.312 0-0.086 0.035-0.165 0.092-0.221v0c0.056-0.057 0.135-0.091 0.221-0.091 0 0 0 0 0 0h0.305c0 0 0 0 0 0 0.172 0 0.312 0.14 0.312 0.312 0 0.086-0.035 0.165-0.092 0.221v0c-0.056 0.057-0.135 0.091-0.221 0.091-0 0-0 0-0 0v0z"></path>
</symbol>
<symbol id="icon-instagram" viewBox="0 0 32 32">
<path  d="M31.968 9.408c-0.074-1.701-0.349-2.869-0.742-3.882-0.424-1.111-1.054-2.059-1.85-2.837l-0.001-0.001c-0.78-0.792-1.724-1.419-2.778-1.827l-0.054-0.018c-1.019-0.394-2.181-0.667-3.882-0.742-1.712-0.082-2.256-0.101-6.602-0.101-4.344 0-4.888 0.019-6.595 0.094-1.699 0.074-2.869 0.349-3.88 0.742-1.112 0.424-2.060 1.054-2.839 1.85l-0.001 0.001c-0.791 0.78-1.418 1.724-1.825 2.778l-0.018 0.054c-0.395 1.019-0.669 2.181-0.744 3.882-0.082 1.712-0.101 2.256-0.101 6.602 0 4.344 0.019 4.888 0.094 6.595 0.075 1.701 0.35 2.869 0.744 3.882 0.426 1.11 1.055 2.057 1.849 2.837l0.001 0.001c0.8 0.813 1.77 1.443 2.832 1.843 1.019 0.395 2.182 0.67 3.882 0.744 1.707 0.075 2.251 0.094 6.595 0.094 4.346 0 4.89-0.019 6.595-0.094 1.701-0.074 2.869-0.349 3.882-0.742 2.157-0.85 3.833-2.526 4.664-4.628l0.019-0.055c0.394-1.019 0.669-2.182 0.744-3.882 0.075-1.707 0.093-2.251 0.093-6.595s-0.006-4.888-0.080-6.595zM29.088 22.474c-0.070 1.563-0.333 2.406-0.55 2.97-0.552 1.399-1.64 2.486-3.004 3.024l-0.036 0.012c-0.56 0.219-1.411 0.482-2.968 0.55-1.688 0.075-2.194 0.094-6.464 0.094-4.269 0-4.782-0.019-6.464-0.094-1.563-0.069-2.406-0.331-2.97-0.55-0.721-0.269-1.334-0.676-1.836-1.192l-0.001-0.001c-0.517-0.503-0.924-1.117-1.184-1.803l-0.011-0.034c-0.218-0.563-0.48-1.413-0.549-2.97-0.075-1.688-0.094-2.195-0.094-6.464 0-4.27 0.019-4.784 0.094-6.464 0.069-1.563 0.331-2.406 0.549-2.97 0.269-0.722 0.678-1.337 1.198-1.837l0.002-0.002c0.504-0.517 1.119-0.923 1.806-1.182l0.034-0.011c0.56-0.219 1.411-0.48 2.968-0.55 1.688-0.074 2.195-0.093 6.464-0.093 4.275 0 4.782 0.019 6.464 0.093 1.563 0.069 2.406 0.331 2.97 0.55 0.693 0.256 1.325 0.662 1.837 1.194 0.531 0.52 0.938 1.144 1.195 1.84 0.218 0.56 0.48 1.411 0.549 2.968 0.075 1.688 0.094 2.194 0.094 6.464 0 4.269-0.019 4.768-0.094 6.458z"></path>
<path  d="M16.059 7.782c-4.539 0.002-8.218 3.682-8.219 8.221v0c0.091 4.471 3.737 8.060 8.221 8.060s8.13-3.589 8.221-8.052l0-0.009c-0.001-4.54-3.681-8.22-8.221-8.221h-0zM16.059 21.334c-2.945-0-5.332-2.388-5.332-5.333s2.388-5.333 5.333-5.333c0 0 0.001 0 0.001 0h-0c2.946 0 5.334 2.388 5.334 5.334s-2.388 5.334-5.334 5.334v0zM26.525 7.458c0 1.060-0.86 1.92-1.92 1.92s-1.92-0.86-1.92-1.92v0c0-1.060 0.86-1.92 1.92-1.92s1.92 0.86 1.92 1.92v0z"></path>
</symbol>
<symbol id="icon-first-img" viewBox="0 0 35 32">
<path fill="#d8b192" style="fill: var(--color1, #d8b192)" d="M6 24.86c-0.229-0.001-0.425-0.14-0.509-0.337l-0.001-0.004c-0.027-0.062-0.042-0.135-0.042-0.211 0-0.152 0.062-0.29 0.162-0.389l23.847-23.757c0.1-0.1 0.239-0.162 0.391-0.162s0.291 0.062 0.391 0.162l-0-0c0.1 0.1 0.162 0.238 0.162 0.39s-0.062 0.29-0.162 0.39v0l-23.847 23.757c-0.1 0.1-0.239 0.161-0.391 0.161-0 0-0.001 0-0.001 0h0zM15.538 30.264c-0.001 0-0.003 0-0.004 0-1.959 0-3.793-0.537-5.362-1.473l0.048 0.027c-0.129-0.072-0.224-0.191-0.265-0.333l-0.001-0.004c-0.012-0.044-0.020-0.094-0.020-0.145 0-0.181 0.087-0.341 0.222-0.441l0.001-0.001c0.091-0.068 0.206-0.109 0.33-0.109 0.109 0 0.21 0.031 0.296 0.086l-0.002-0.001c1.363 0.812 3.007 1.292 4.762 1.292 0.419 0 0.832-0.027 1.237-0.081l-0.048 0.005c2.146-0.28 4.027-1.246 5.454-2.668l12.26-12.213c0.1-0.103 0.239-0.167 0.393-0.168h0c0.001 0 0.003-0 0.005-0 0.306 0 0.554 0.248 0.554 0.554 0 0.001 0 0.001 0 0.002v-0c-0.001 0.154-0.066 0.293-0.169 0.391l-0 0-12.264 12.214c-0.95 0.948-2.082 1.715-3.338 2.244l-0.069 0.026c-1.188 0.504-2.57 0.797-4.020 0.797-0 0-0 0-0 0v0z"></path>
<path fill="#d8b192" style="fill: var(--color1, #d8b192)" d="M4.709 32c-0.005 0-0.011 0-0.018 0-0.882 0-1.722-0.178-2.486-0.5l0.042 0.016c-0.811-0.34-1.504-0.81-2.084-1.392l-0-0c-0.1-0.099-0.163-0.237-0.163-0.39s0.062-0.29 0.162-0.39l0-0 15.933-15.872c0.1-0.1 0.238-0.161 0.39-0.161 0 0 0.001 0 0.001 0h-0c0 0 0 0 0 0 0.153 0 0.291 0.062 0.391 0.161l-0-0c1.161 1.158 1.879 2.76 1.88 4.529v0c-0 1.769-0.719 3.371-1.879 4.529l-0 0-7.623 7.594c-0.581 0.582-1.273 1.052-2.042 1.376l-0.042 0.016c-0.723 0.306-1.563 0.485-2.445 0.485-0.006 0-0.012 0-0.018-0h0.001zM1.356 29.714c0.908 0.738 2.079 1.185 3.354 1.185 0.097 0 0.193-0.003 0.289-0.008l-0.013 0.001c1.367-0.072 2.587-0.649 3.488-1.545l-0 0 7.623-7.594c0.897-0.896 1.475-2.111 1.548-3.461l0.001-0.013c0.005-0.082 0.007-0.178 0.007-0.274 0-1.271-0.448-2.438-1.194-3.351l0.008 0.009-15.109 15.051z"></path>
<path fill="#d8b192" style="fill: var(--color1, #d8b192)" d="M10.007 26.201c-0 0-0 0-0 0-0.229 0-0.425-0.139-0.51-0.336l-0.001-0.004c-0.027-0.062-0.042-0.135-0.042-0.211 0-0.152 0.062-0.29 0.162-0.389l3.094-3.081c0.099-0.096 0.235-0.155 0.384-0.155 0.153 0 0.291 0.062 0.391 0.162h-0c0.1 0.1 0.162 0.237 0.162 0.39 0 0.149-0.059 0.284-0.155 0.383l0-0-3.093 3.081c-0.1 0.1-0.237 0.161-0.389 0.161-0.001 0-0.001 0-0.001 0h0zM8.443 27.76c-0 0-0 0-0.001 0-0.229 0-0.425-0.139-0.51-0.336l-0.001-0.004c-0.027-0.062-0.042-0.135-0.042-0.211 0-0.153 0.062-0.291 0.163-0.39l0-0 0.344-0.344c0.1-0.1 0.238-0.162 0.391-0.162 0.076 0 0.149 0.015 0.216 0.044l-0.004-0.001c0.136 0.057 0.242 0.163 0.298 0.295l0.001 0.004c0.027 0.062 0.042 0.135 0.042 0.211 0 0.152-0.062 0.29-0.162 0.39l-0 0-0.345 0.344c-0.1 0.1-0.237 0.161-0.39 0.161-0 0-0.001 0-0.001 0h0zM4.316 18.308c-0 0-0 0-0 0-0.153 0-0.291-0.062-0.391-0.161l0 0c-0.1-0.1-0.162-0.237-0.162-0.39v-0.538c0-0.146 0.058-0.286 0.162-0.39 0.1-0.1 0.238-0.162 0.391-0.162s0.291 0.062 0.391 0.162l-0-0c0.104 0.103 0.162 0.244 0.162 0.39v0.538c0 0.146-0.058 0.286-0.162 0.39s-0.244 0.161-0.391 0.161zM4.316 21.516c-0 0-0 0-0 0-0.153 0-0.291-0.062-0.391-0.161l0 0c-0.1-0.1-0.162-0.238-0.162-0.39v0-0.538c0-0.146 0.058-0.286 0.162-0.39 0.1-0.1 0.238-0.161 0.391-0.161s0.291 0.062 0.391 0.161l-0-0c0.104 0.103 0.162 0.244 0.162 0.39v0.538c0 0.146-0.058 0.286-0.162 0.39s-0.244 0.161-0.391 0.161zM2.975 19.643h-0.54c-0.153 0-0.291-0.062-0.391-0.161l0 0c-0.1-0.1-0.162-0.237-0.162-0.39s0.062-0.29 0.162-0.39l0-0c0.104-0.103 0.244-0.161 0.391-0.161h0.54c0.147 0 0.287 0.058 0.391 0.161 0.1 0.1 0.162 0.237 0.162 0.39s-0.062 0.29-0.162 0.39v0c-0.104 0.103-0.245 0.161-0.391 0.161zM6.196 19.643h-0.542c-0.153-0-0.291-0.062-0.391-0.161l0 0c-0.1-0.1-0.162-0.237-0.162-0.39s0.062-0.29 0.162-0.39l0-0c0.103-0.103 0.244-0.161 0.391-0.161h0.54c0.147 0 0.287 0.058 0.391 0.161 0.1 0.1 0.162 0.237 0.162 0.39s-0.062 0.29-0.162 0.39l-0 0c-0.104 0.103-0.244 0.161-0.391 0.161h0.001zM10.498 7.622c-0 0-0 0-0 0-0.153 0-0.291-0.062-0.391-0.161l0 0c-0.1-0.1-0.162-0.237-0.162-0.39 0-0 0-0 0-0v0-0.538c0-0.146 0.058-0.286 0.162-0.39 0.1-0.1 0.239-0.162 0.391-0.162s0.291 0.062 0.391 0.162v0c0.104 0.103 0.162 0.244 0.162 0.39v0.538c0 0.146-0.058 0.286-0.162 0.39s-0.245 0.161-0.391 0.161zM10.498 10.83c-0 0-0 0-0 0-0.153 0-0.291-0.062-0.391-0.161l0 0c-0.1-0.1-0.162-0.237-0.162-0.39v0-0.538c0-0.146 0.058-0.286 0.162-0.39 0.1-0.1 0.239-0.162 0.391-0.162s0.291 0.062 0.391 0.162v0c0.104 0.103 0.162 0.244 0.162 0.39v0.538c0 0.146-0.058 0.286-0.162 0.39s-0.245 0.161-0.391 0.161zM9.157 8.957h-0.539c-0 0-0 0-0 0-0.153 0-0.291-0.062-0.391-0.161l0 0c-0.1-0.1-0.162-0.237-0.162-0.39s0.062-0.29 0.162-0.39l0-0c0.104-0.103 0.245-0.161 0.391-0.161h0.539c0.147 0 0.287 0.058 0.391 0.161 0.1 0.1 0.162 0.237 0.162 0.39s-0.062 0.29-0.162 0.39l-0 0c-0.104 0.103-0.244 0.161-0.391 0.161zM12.378 8.957h-0.54c-0.153 0-0.291-0.062-0.391-0.161l0 0c-0.1-0.1-0.162-0.237-0.162-0.39s0.062-0.29 0.162-0.39l0-0c0.104-0.103 0.244-0.161 0.391-0.161h0.54c0.147 0 0.288 0.058 0.391 0.161 0.1 0.1 0.162 0.237 0.162 0.39s-0.062 0.29-0.162 0.39l-0 0c-0.104 0.103-0.244 0.161-0.391 0.161z"></path>
</symbol>
<symbol id="icon-third-img" viewBox="0 0 29 32">
<path fill="#d8b192" style="fill: var(--color1, #d8b192)" d="M15.676 32h-1.636c-1.589-0-3.056-0.524-4.237-1.409l0.018 0.013c-1.203-0.901-2.102-2.148-2.553-3.592l-0.014-0.051-0.843-2.744c-0.077-0.242-0.121-0.52-0.121-0.809 0-0.349 0.065-0.683 0.183-0.991l-0.006 0.019c0.221-0.58 0.615-1.052 1.118-1.366l0.012-0.007c0.093-0.060 1.961-1.278 3.231-2.639 0.089-0.095 0.214-0.154 0.354-0.154h7.35c0 0 0 0 0 0 0.169 0 0.317 0.086 0.404 0.217l0.001 0.002c0.85 1.292 3.131 2.547 3.154 2.559l0.021 0.012c0.516 0.32 0.911 0.793 1.127 1.354l0.006 0.019c0.216 0.572 0.235 1.199 0.057 1.783l-0.842 2.744c-0.466 1.495-1.365 2.742-2.549 3.629l-0.019 0.013c-1.163 0.872-2.63 1.396-4.219 1.396h0.003zM11.392 19.248c-1.368 1.412-3.193 2.59-3.273 2.642l-0.008 0.005c-0.333 0.206-0.588 0.511-0.727 0.873l-0.004 0.012c-0.072 0.186-0.114 0.402-0.114 0.628 0 0.186 0.029 0.366 0.082 0.535l-0.003-0.013 0.838 2.744c0.386 1.259 1.162 2.361 2.216 3.144 1.004 0.753 2.27 1.205 3.641 1.206h1.636c1.372-0 2.638-0.453 3.657-1.217l-0.016 0.011c1.038-0.777 1.814-1.854 2.204-3.1l0.012-0.044 0.839-2.744c0.049-0.156 0.078-0.335 0.078-0.521 0-0.224-0.041-0.438-0.117-0.636l0.004 0.012c-0.142-0.373-0.394-0.677-0.716-0.88l-0.007-0.004c-0.199-0.11-2.302-1.288-3.334-2.653h-6.888z"></path>
<path fill="#d8b192" style="fill: var(--color1, #d8b192)" d="M14.717 23.908c-4.607 0-7.766-0.651-7.936-0.69-0.129-0.028-0.237-0.105-0.306-0.21l-0.001-0.002c-0.049-0.075-0.079-0.167-0.079-0.266 0-0.17 0.087-0.321 0.219-0.409l0.002-0.001c0.108-0.071 0.239-0.095 0.366-0.069 0.060 0.012 5.386 1.112 12.186 0.456 0.016-0.002 0.035-0.003 0.054-0.003 0.117 0 0.224 0.041 0.307 0.11l-0.001-0.001c0.098 0.081 0.164 0.198 0.177 0.33l0 0.002c0.001 0.014 0.002 0.030 0.002 0.046 0 0.188-0.105 0.351-0.26 0.433l-0.003 0.001c-0.053 0.028-0.116 0.047-0.182 0.053l-0.002 0c-1.618 0.158-3.148 0.218-4.543 0.218zM18.53 19.248c-0.126-0-0.241-0.049-0.327-0.128l0 0c-0.087-0.080-0.145-0.189-0.157-0.313l-0-0.002-1.443-15.253c-0.030-0.317-0.125-0.607-0.27-0.863l0.006 0.011c-0.151-0.267-0.347-0.491-0.581-0.668l-0.005-0.004c-0.763-0.577-1.706-0.955-2.732-1.041l-0.019-0.001-1.333 17.81c-0.010 0.134-0.073 0.252-0.168 0.334l-0.001 0c-0.085 0.073-0.196 0.118-0.318 0.118-0.013 0-0.025-0-0.038-0.001l0.002 0c-0.134-0.010-0.251-0.074-0.333-0.169l-0.001-0.001c-0.073-0.085-0.118-0.197-0.118-0.319 0-0.013 0.001-0.026 0.002-0.039l-0 0.002 1.368-18.266c0.009-0.116 0.058-0.225 0.139-0.307 0.078-0.080 0.184-0.133 0.302-0.143l0.002-0c0.079-0.007 1.956-0.15 3.823 1.237 0.348 0.262 0.634 0.587 0.846 0.959l0.008 0.015c0.204 0.357 0.342 0.778 0.385 1.227l0.001 0.013 1.442 15.253c0.001 0.014 0.002 0.030 0.002 0.046 0 0.118-0.042 0.227-0.112 0.312l0.001-0.001c-0.080 0.097-0.196 0.162-0.326 0.175l-0.002 0c-0.013 0.002-0.029 0.003-0.045 0.004h-0zM16.438 29.316h-3.378c-0.485-0.001-0.939-0.133-1.328-0.364l0.012 0.007c-0.402-0.238-0.728-0.566-0.955-0.959l-0.007-0.013c-0.033-0.064-0.052-0.139-0.052-0.219 0-0.18 0.097-0.338 0.242-0.423l0.002-0.001c0.069-0.041 0.152-0.065 0.241-0.065 0.041 0 0.081 0.005 0.119 0.015l-0.003-0.001c0.121 0.030 0.226 0.105 0.293 0.21 0.147 0.255 0.352 0.462 0.597 0.607l0.008 0.004c0.252 0.147 0.538 0.224 0.829 0.225h3.378c0.57-0.001 1.073-0.291 1.369-0.731l0.004-0.006c0.088-0.132 0.236-0.217 0.404-0.217 0.101 0 0.195 0.031 0.272 0.084l-0.002-0.001c0.131 0.090 0.215 0.238 0.215 0.406 0 0.101-0.030 0.195-0.083 0.273l0.001-0.002c-0.241 0.359-0.558 0.65-0.93 0.853l-0.014 0.007c-0.357 0.196-0.783 0.311-1.235 0.311v0zM4.808 7.272c-0.129 0-0.252-0.051-0.344-0.143-0.088-0.088-0.142-0.21-0.142-0.345v0-0.477c0-0.13 0.051-0.254 0.142-0.345 0.088-0.088 0.209-0.143 0.344-0.143s0.256 0.055 0.344 0.143l0 0c0.091 0.092 0.142 0.216 0.142 0.345v0.477c0 0.13-0.051 0.254-0.142 0.345s-0.215 0.143-0.344 0.143zM4.808 10.115c-0.129 0-0.252-0.052-0.344-0.143-0.088-0.088-0.142-0.21-0.142-0.345v0-0.477c0-0.129 0.051-0.254 0.142-0.345 0.088-0.088 0.209-0.143 0.344-0.143s0.256 0.055 0.344 0.143l0 0c0.091 0.092 0.142 0.216 0.142 0.345v0.477c0 0.13-0.051 0.254-0.142 0.345s-0.215 0.143-0.344 0.143zM3.634 8.455h-0.474c-0.129 0-0.252-0.052-0.344-0.143-0.088-0.089-0.142-0.211-0.142-0.345s0.054-0.257 0.143-0.345l-0 0c0.091-0.092 0.215-0.143 0.344-0.143h0.474c0.129 0 0.252 0.051 0.344 0.143 0.088 0.089 0.142 0.211 0.142 0.345s-0.054 0.257-0.143 0.345l0-0c-0.091 0.092-0.215 0.143-0.344 0.143zM6.462 8.455h-0.474c-0.129 0-0.252-0.052-0.344-0.143-0.088-0.089-0.142-0.211-0.142-0.345s0.054-0.257 0.143-0.345l-0 0c0.091-0.092 0.215-0.143 0.344-0.143h0.474c0.129 0 0.253 0.051 0.344 0.143 0.088 0.089 0.142 0.211 0.142 0.345s-0.054 0.257-0.143 0.345l0-0c-0.091 0.092-0.215 0.143-0.344 0.143zM25.93 16.662c-0.129 0-0.253-0.051-0.344-0.143-0.088-0.089-0.142-0.211-0.142-0.345 0-0 0-0 0-0v0-0.477c0-0.13 0.051-0.254 0.142-0.345 0.088-0.088 0.209-0.143 0.344-0.143s0.256 0.055 0.344 0.143l0 0c0.091 0.092 0.142 0.216 0.142 0.345v0.477c0 0.13-0.051 0.254-0.142 0.345s-0.215 0.143-0.344 0.143zM25.93 19.505c-0.129 0-0.253-0.051-0.344-0.143-0.088-0.089-0.142-0.211-0.142-0.345 0-0 0-0 0-0v0-0.477c0-0.13 0.051-0.254 0.142-0.345 0.088-0.088 0.209-0.143 0.344-0.143s0.256 0.055 0.344 0.143l0 0c0.091 0.092 0.142 0.216 0.142 0.345v0.477c0 0.13-0.051 0.254-0.142 0.345s-0.215 0.143-0.344 0.143zM24.751 17.845h-0.474c-0.129 0-0.253-0.051-0.344-0.143-0.088-0.089-0.143-0.211-0.143-0.345s0.054-0.257 0.143-0.345l-0 0c0.091-0.092 0.215-0.143 0.344-0.143h0.474c0.129 0 0.253 0.051 0.344 0.143 0.088 0.089 0.143 0.211 0.143 0.345s-0.054 0.257-0.143 0.345l0-0c-0.091 0.092-0.215 0.143-0.344 0.143zM27.58 17.845h-0.474c-0.129 0-0.253-0.051-0.344-0.143-0.088-0.088-0.142-0.21-0.142-0.345 0-0.269 0.217-0.487 0.485-0.489h0.474c0.129 0 0.252 0.051 0.344 0.143 0.088 0.089 0.142 0.211 0.142 0.345s-0.054 0.257-0.143 0.345l0-0c-0.088 0.088-0.209 0.143-0.344 0.143h-0zM2.137 22.999c-0.129 0-0.253-0.051-0.344-0.143-0.088-0.089-0.142-0.211-0.142-0.345 0-0 0-0 0-0v0-0.476c0-0.129 0.051-0.254 0.142-0.345 0.088-0.088 0.209-0.143 0.344-0.143s0.256 0.055 0.344 0.143l0 0c0.091 0.092 0.142 0.216 0.142 0.345v0.476c0 0.13-0.051 0.254-0.142 0.345s-0.215 0.143-0.344 0.143zM2.137 25.843c-0.129 0-0.253-0.051-0.344-0.143-0.088-0.088-0.142-0.21-0.142-0.345v0-0.477c0-0.129 0.051-0.254 0.142-0.345 0.088-0.088 0.209-0.143 0.344-0.143s0.256 0.055 0.344 0.143l0 0c0.091 0.092 0.142 0.216 0.142 0.345v0.477c0 0.13-0.051 0.254-0.142 0.345s-0.215 0.143-0.344 0.143zM0.96 24.183h-0.474c-0.129 0-0.253-0.051-0.344-0.143-0.088-0.089-0.142-0.211-0.142-0.345s0.054-0.257 0.142-0.345l-0 0c0.091-0.092 0.215-0.143 0.344-0.143h0.474c0.129 0 0.252 0.051 0.344 0.143 0.088 0.089 0.142 0.211 0.142 0.345s-0.054 0.257-0.143 0.345l0-0c-0.091 0.092-0.215 0.143-0.344 0.143zM3.318 24.183c-0.129 0-0.253-0.051-0.344-0.143-0.088-0.089-0.142-0.211-0.142-0.345s0.054-0.257 0.143-0.345l-0 0c0.091-0.092 0.215-0.143 0.344-0.143h0.474c0.129 0 0.253 0.051 0.344 0.143 0.088 0.088 0.143 0.211 0.143 0.345s-0.054 0.257-0.143 0.345l0-0c-0.091 0.092-0.215 0.143-0.344 0.143h-0.474zM4.545 17.916c-0.273 0-0.54-0.081-0.767-0.234-0.225-0.153-0.4-0.365-0.505-0.613l-0.003-0.009c-0.066-0.157-0.105-0.339-0.105-0.53 0-0.383 0.154-0.729 0.404-0.981l-0 0c0.249-0.251 0.594-0.406 0.975-0.406 0.191 0 0.372 0.039 0.538 0.109l-0.009-0.003c0.257 0.109 0.468 0.285 0.616 0.506l0.003 0.005c0.146 0.216 0.232 0.483 0.232 0.77 0 0.383-0.154 0.729-0.404 0.981l0-0c-0.249 0.251-0.594 0.406-0.976 0.407h-0zM4.545 16.119c-0 0-0 0-0.001 0-0.169 0-0.314 0.103-0.375 0.25l-0.001 0.003c-0.020 0.046-0.031 0.1-0.031 0.157 0 0.113 0.046 0.216 0.12 0.29l-0-0c0.074 0.074 0.176 0.12 0.289 0.12 0.225 0 0.408-0.183 0.408-0.408 0-0.001 0-0.002 0-0.003v0c-0-0.113-0.046-0.216-0.12-0.29l0 0c-0.074-0.074-0.176-0.12-0.288-0.12h-0zM27.998 28.233c-0 0-0.001 0-0.001 0-0.286 0-0.551-0.087-0.771-0.237l0.005 0.003c-0.225-0.153-0.401-0.364-0.505-0.613l-0.003-0.009c-0.067-0.157-0.105-0.34-0.105-0.531 0-0.096 0.010-0.189 0.028-0.279l-0.002 0.009c0.057-0.28 0.19-0.522 0.378-0.71l-0 0c0.249-0.251 0.594-0.407 0.975-0.407 0.191 0 0.372 0.039 0.538 0.109l-0.009-0.003c0.257 0.109 0.468 0.285 0.616 0.506l0.003 0.005c0.146 0.217 0.232 0.483 0.232 0.77 0 0.383-0.154 0.729-0.404 0.981l0-0c-0.249 0.251-0.594 0.406-0.975 0.407h-0zM27.998 26.436c-0.169 0-0.315 0.103-0.376 0.25l-0.001 0.003c-0.020 0.047-0.032 0.101-0.032 0.158 0 0.113 0.046 0.215 0.12 0.289v0c0.074 0.074 0.176 0.121 0.289 0.121 0.141 0 0.265-0.072 0.338-0.181l0.001-0.001c0.043-0.064 0.069-0.143 0.069-0.228 0-0.113-0.045-0.215-0.119-0.29l0 0c-0.074-0.074-0.175-0.121-0.288-0.121h-0v0.001z"></path>
<path fill="#d8b192" style="fill: var(--color1, #d8b192)" d="M15.329 4.188c-0.088-0.001-0.17-0.025-0.241-0.066l0.002 0.001c-2.639-1.498-3.002-3.466-3.017-3.549-0.019-0.126 0.012-0.254 0.087-0.358 0.089-0.124 0.232-0.203 0.394-0.203 0.102 0 0.197 0.032 0.276 0.086l-0.002-0.001c0.105 0.072 0.177 0.182 0.202 0.307 0.014 0.073 0.333 1.616 2.538 2.865 0.146 0.087 0.243 0.244 0.243 0.424 0 0.156-0.073 0.295-0.186 0.385l-0.001 0.001c-0.084 0.066-0.188 0.102-0.295 0.102v0.005z"></path>
</symbol>
</defs>
</svg>
